<svg width="1938" height="1174" xmlns="http://www.w3.org/2000/svg" overflow="hidden"><defs><filter id="f" filterUnits="userSpaceOnUse"><feComponentTransfer color-interpolation-filters="sRGB"><feFuncR type="discrete" tableValues="0 0"/><feFuncG type="discrete" tableValues="0 0"/><feFuncB type="discrete" tableValues="0 0"/><feFuncA type="linear" slope=".349"/></feComponentTransfer><feGaussianBlur stdDeviation="4.8119 4.8119"/></filter><filter id="j" filterUnits="userSpaceOnUse"><feComponentTransfer color-interpolation-filters="sRGB"><feFuncR type="discrete" tableValues="0 0"/><feFuncG type="discrete" tableValues="0 0"/><feFuncB type="discrete" tableValues="0 0"/><feFuncA type="linear" slope=".349"/></feComponentTransfer><feGaussianBlur stdDeviation="4.8119 4.8119"/></filter><filter id="n" filterUnits="userSpaceOnUse"><feComponentTransfer color-interpolation-filters="sRGB"><feFuncR type="discrete" tableValues="0 0"/><feFuncG type="discrete" tableValues="0 0"/><feFuncB type="discrete" tableValues="0 0"/><feFuncA type="linear" slope=".349"/></feComponentTransfer><feGaussianBlur stdDeviation="4.8119 4.8119"/></filter><clipPath id="a"><path d="M382 600h1938v1174H382z"/></clipPath><clipPath id="b"><path d="M381 600h1939v1173H381z"/></clipPath><clipPath id="c"><path d="M381 600h1939v1173H381z"/></clipPath><clipPath id="d"><path d="M726 781h1547v693H726z"/></clipPath><clipPath id="e"><path d="M-5-5h1211v88H-5z"/></clipPath><clipPath id="g"><path d="M0 0h1201v78H0z"/></clipPath><clipPath id="h"><path d="M726 781h1547v693H726z"/></clipPath><clipPath id="i"><path d="M-5-2h1205v548H-5z"/></clipPath><clipPath id="k"><path d="M0 0h1201v541H0z"/></clipPath><clipPath id="l"><path d="M726 781h1547v693H726z"/></clipPath><clipPath id="m"><path d="M-5-5h1211v493H-5z"/></clipPath><clipPath id="o"><path d="M0 0h1201v485H0z"/></clipPath><clipPath id="p"><path d="M726 781h1547v693H726z"/></clipPath><clipPath id="q"><path d="M726 781h1547v693H726z"/></clipPath><clipPath id="r"><path d="M726 781h1547v693H726z"/></clipPath><clipPath id="s"><path d="M381 600h1939v1173H381z"/></clipPath><clipPath id="t"><path d="M381 600h1939v1173H381z"/></clipPath><clipPath id="u"><path d="M381 600h1939v1173H381z"/></clipPath><clipPath id="v"><path d="M381 600h1939v1173H381z"/></clipPath><clipPath id="w"><path d="M381 600h1939v1173H381z"/></clipPath><clipPath id="x"><path d="M381 600h1939v1173H381z"/></clipPath><clipPath id="y"><path d="M381 600h1939v1173H381z"/></clipPath><clipPath id="z"><path d="M381 600h1939v1173H381z"/></clipPath><clipPath id="A"><path d="M381 600h1939v1173H381z"/></clipPath><clipPath id="B"><path d="M381 600h1939v1173H381z"/></clipPath><clipPath id="C"><path d="M381 600h1939v1173H381z"/></clipPath><clipPath id="D"><path d="M381 600h1939v1173H381z"/></clipPath><clipPath id="E"><path d="M381 600h1939v1173H381z"/></clipPath><clipPath id="F"><path d="M381 600h1939v1173H381z"/></clipPath><clipPath id="G"><path d="M381 600h1939v1173H381z"/></clipPath><clipPath id="H"><path d="M381 600h1939v1173H381z"/></clipPath><clipPath id="I"><path d="M381 600h1939v1173H381z"/></clipPath><clipPath id="J"><path d="M381 600h1939v1173H381z"/></clipPath><clipPath id="K"><path d="M381 600h1939v1173H381z"/></clipPath><clipPath id="L"><path d="M381 600h1939v1173H381z"/></clipPath><clipPath id="M"><path d="M381 600h1939v1173H381z"/></clipPath><clipPath id="N"><path d="M381 600h1939v1173H381z"/></clipPath><clipPath id="O"><path d="M381 600h1939v1173H381z"/></clipPath><clipPath id="P"><path d="M381 600h1939v1173H381z"/></clipPath><clipPath id="Q"><path d="M381 600h1939v1173H381z"/></clipPath><clipPath id="R"><path d="M381 600h1939v1173H381z"/></clipPath></defs><g clip-path="url(#a)" transform="translate(-382 -600)"><path fill="#FFF" d="M382 600h1938v1174H382z"/><g clip-path="url(#b)"><path d="M726.5 1401.55h1543m-1543-68.01h1543m-1543-69h1543m-1543-69h1543m-1543-69h1543m-1543-69.01h1543m-1543-68.997h1543m-1543-69.003h1543m-1543-69.002h1543M726.5 781.5h1543" stroke="#D4E3F4" stroke-width="3.438" stroke-linejoin="round" stroke-miterlimit="10" fill="none"/></g><g clip-path="url(#c)"><path d="M726.5 1470.5h1543" stroke="#D4E3F4" stroke-width="3.438" stroke-linejoin="round" stroke-miterlimit="10" fill="none" fill-rule="evenodd"/></g><g clip-path="url(#d)"><g clip-path="url(#e)" filter="url(#f)" transform="translate(898 1030)"><g clip-path="url(#g)"><path d="M21.5 21.8l386.043 34 386.013-19.965 385.944 3" stroke="#9BBB59" stroke-width="11" stroke-linecap="round" stroke-linejoin="round" stroke-miterlimit="10" stroke-dasharray="22.9167 22.9167" fill="none"/></g></g></g><g clip-path="url(#h)"><g clip-path="url(#i)" filter="url(#j)" transform="translate(898 802)"><g clip-path="url(#k)"><path d="M21.5 518.8l386.043-165.962 386.013-110.003L1179.5 21.8" stroke="#4BACC6" stroke-width="11" stroke-linecap="round" stroke-linejoin="round" stroke-miterlimit="10" stroke-dasharray="22.9167 22.9167" fill="none"/></g></g></g><g clip-path="url(#l)"><g clip-path="url(#m)" filter="url(#n)" transform="translate(898 837)"><g clip-path="url(#o)"><path d="M21.5 462.801l386.043-199.964 386.013-96.004L1179.5 21.801" stroke="#4F81BD" stroke-width="11" stroke-linecap="round" stroke-linejoin="round" stroke-miterlimit="10" fill="none"/></g></g></g><g clip-path="url(#p)"><path d="M919.5 1043.5l386.04 34 386.02-19.97 385.94 3" stroke="#9BBB59" stroke-width="11.458" stroke-linecap="round" stroke-linejoin="round" stroke-miterlimit="10" stroke-dasharray="22.9167 22.9167" fill="none"/></g><g clip-path="url(#q)"><path d="M919.5 1312.5l386.04-165.96 386.02-110.01L2077.5 815.5" stroke="#4BACC6" stroke-width="11.458" stroke-linecap="round" stroke-linejoin="round" stroke-miterlimit="10" stroke-dasharray="22.9167 22.9167" fill="none"/></g><g clip-path="url(#r)"><path d="M919.5 1291.5l386.04-199.96 386.02-96.007L2077.5 850.5" stroke="#4F81BD" stroke-width="11.458" stroke-linecap="round" stroke-linejoin="round" stroke-miterlimit="10" fill="none"/></g><g clip-path="url(#s)"><text fill="#1F497D" font-family="Calibri,Calibri_MSFontService,sans-serif" font-weight="400" font-size="41" transform="translate(534.256 1483)">600.000</text></g><g clip-path="url(#t)"><text fill="#1F497D" font-family="Calibri,Calibri_MSFontService,sans-serif" font-weight="400" font-size="41" transform="translate(534.256 1414)">700.000</text></g><g clip-path="url(#u)"><text fill="#1F497D" font-family="Calibri,Calibri_MSFontService,sans-serif" font-weight="400" font-size="41" transform="translate(534.256 1345)">800.000</text></g><g clip-path="url(#v)"><text fill="#1F497D" font-family="Calibri,Calibri_MSFontService,sans-serif" font-weight="400" font-size="41" transform="translate(534.256 1276)">900.000</text></g><g clip-path="url(#w)"><text fill="#1F497D" font-family="Calibri,Calibri_MSFontService,sans-serif" font-weight="400" font-size="41" transform="translate(502.952 1207)">1.000.000</text></g><g clip-path="url(#x)"><text fill="#1F497D" font-family="Calibri,Calibri_MSFontService,sans-serif" font-weight="400" font-size="41" transform="translate(502.952 1138)">1.100.000</text></g><g clip-path="url(#y)"><text fill="#1F497D" font-family="Calibri,Calibri_MSFontService,sans-serif" font-weight="400" font-size="41" transform="translate(502.952 1069)">1.200.000</text></g><g clip-path="url(#z)"><text fill="#1F497D" font-family="Calibri,Calibri_MSFontService,sans-serif" font-weight="400" font-size="41" transform="translate(502.952 1000)">1.300.000</text></g><g clip-path="url(#A)"><text fill="#1F497D" font-family="Calibri,Calibri_MSFontService,sans-serif" font-weight="400" font-size="41" transform="translate(502.952 931)">1.400.000</text></g><g clip-path="url(#B)"><text fill="#1F497D" font-family="Calibri,Calibri_MSFontService,sans-serif" font-weight="400" font-size="41" transform="translate(502.952 862)">1.500.000</text></g><g clip-path="url(#C)"><text fill="#1F497D" font-family="Calibri,Calibri_MSFontService,sans-serif" font-weight="400" font-size="41" transform="translate(502.952 793)">1.600.000</text></g><g clip-path="url(#D)"><text fill="#1F497D" font-family="Calibri,Calibri_MSFontService,sans-serif" font-weight="400" font-size="41" transform="translate(909.396 1536)">1</text></g><g clip-path="url(#E)"><text fill="#1F497D" font-family="Calibri,Calibri_MSFontService,sans-serif" font-weight="400" font-size="41" transform="translate(1295.12 1536)">2</text></g><g clip-path="url(#F)"><text fill="#1F497D" font-family="Calibri,Calibri_MSFontService,sans-serif" font-weight="400" font-size="41" transform="translate(1680.85 1536)">3</text></g><g clip-path="url(#G)"><text fill="#1F497D" font-family="Calibri,Calibri_MSFontService,sans-serif" font-weight="400" font-size="41" transform="translate(2066.58 1536)">4</text></g><g clip-path="url(#H)"><text fill="#1F497D" font-family="Calibri,Calibri_MSFontService,sans-serif" font-weight="700" font-size="41" transform="rotate(-90 860.929 383.071)">Aantal (stuks)</text></g><g clip-path="url(#I)"><text fill="#1F497D" font-family="Calibri,Calibri_MSFontService,sans-serif" font-weight="700" font-size="41" transform="translate(1421.69 1600)">Kwartaal</text></g><g clip-path="url(#J)"><text fill="#1F497D" font-family="Calibri,Calibri_MSFontService,sans-serif" font-weight="700" font-size="73" transform="translate(1076.12 705)">Vraag naar ice</text></g><g clip-path="url(#K)"><text fill="#1F497D" font-family="Calibri,Calibri_MSFontService,sans-serif" font-weight="700" font-size="73" transform="translate(1505.65 705)">-</text></g><g clip-path="url(#L)"><text fill="#1F497D" font-family="Calibri,Calibri_MSFontService,sans-serif" font-weight="700" font-size="73" transform="translate(1528.11 705)">tea</text></g><g clip-path="url(#M)"><path d="M568.5 1707.5h115" stroke="#9BBB59" stroke-width="11.458" stroke-linecap="round" stroke-linejoin="round" stroke-miterlimit="10" stroke-dasharray="22.9167 22.9167" fill="none" fill-rule="evenodd"/></g><g clip-path="url(#N)"><text fill="#1F497D" font-family="Calibri,Calibri_MSFontService,sans-serif" font-weight="400" font-size="41" transform="translate(696.493 1719)">Voorspelmethode 1</text></g><g clip-path="url(#O)"><path d="M1116.5 1707.5h116" stroke="#4BACC6" stroke-width="11.458" stroke-linecap="round" stroke-linejoin="round" stroke-miterlimit="10" stroke-dasharray="22.9167 22.9167" fill="none" fill-rule="evenodd"/></g><g clip-path="url(#P)"><text fill="#1F497D" font-family="Calibri,Calibri_MSFontService,sans-serif" font-weight="400" font-size="41" transform="translate(1245.04 1719)">Voorspelmethode 2</text></g><g clip-path="url(#Q)"><path d="M1665.5 1707.5h115" stroke="#4F81BD" stroke-width="11.458" stroke-linecap="round" stroke-linejoin="round" stroke-miterlimit="10" fill="none" fill-rule="evenodd"/></g><g clip-path="url(#R)"><text fill="#1F497D" font-family="Calibri,Calibri_MSFontService,sans-serif" font-weight="400" font-size="41" transform="translate(1793.58 1719)">Daadwerkelijke vraag</text></g></g></svg>